:SAMPLES-PER-SECOND 30
:FULLY-SPECIFIED
:DEGREES
55
root  -18.3117 39.6427 -18.4341 171.083 -67.4577 -174.573
RightUpLeg  -1.1268 -21.4054 -1.45943
RightLeg  24.0567 1.90286 0.788939
RightFoot  -16.0077 -0.09398 0.369697
RightToes  0.00048216 0.542163 -0.142577
Spine  17.575 -1.23404 13.4993
Spine1  12.9872 1.54002 -2.49379
HEad  9.7892 6.51507 -9.58491
LeftShoulder1  9.21555 -13.7533 -46.5901
LeftArm  -6.56577 10.9643 -27.6625
LeftForeArm  19.9489 -17.5479 -4.55994
LeftHand  -0.25398 0.0180481 5.50724
RightShoulder  4.79036 9.17184 31.8494
RightArm  -12.2147 18.7692 24.3511
RightForeArm  3.29924 14.2665 6.07727
RightHand  -0.985455 2.94588 -13.9473
LeftUpLeg  -25.4816 19.5063 -1.10046
LeftLeg  35.8966 3.18386 2.85946
LeftFoot  -2.95941 0.4504 -5.89412
LeftToes  1.06244e-005 4.65856e-005 -8.18505e-006
56
root  -19.4599 39.5416 -19.0538 170.01 -67.1828 -173.579
RightUpLeg  1.43124 -20.3555 -1.31526
RightLeg  23.757 0.873068 0.310533
RightFoot  -17.3679 -0.116536 0.0235333
RightToes  0.00048216 0.542163 -0.142577
Spine  17.5732 -0.918808 14.2599
Spine1  13.4813 2.24948 -3.45249
HEad  9.3392 6.04019 -9.37849
LeftShoulder1  9.25783 -13.8074 -46.6591
LeftArm  -7.72435 12.0402 -27.1567
LeftForeArm  20.4914 -15.7052 -4.88849
LeftHand  -0.25398 0.0180481 5.50724
RightShoulder  4.79944 9.28218 31.5919
RightArm  -10.3491 21.3738 23.6231
RightForeArm  0.744547 16.0148 5.99268
RightHand  -1.01445 2.83636 -14.5223
LeftUpLeg  -25.9004 23.6333 -3.69387
LeftLeg  24.091 2.37218 1.79937
LeftFoot  -3.2911 0.378443 -5.09944
LeftToes  1.06244e-005 4.65856e-005 -8.18505e-006
57
root  -20.6412 39.3966 -19.6518 169.159 -66.5479 -172.782
RightUpLeg  4.01795 -18.7354 -1.05051
RightLeg  23.261 -0.252349 -0.282021
RightFoot  -18.9248 -0.103815 0.343522
RightToes  0.00048216 0.542163 -0.142577
Spine  17.698 -0.720833 14.9263
Spine1  14.1049 3.08145 -4.86853
HEad  8.95463 5.94911 -9.16746
LeftShoulder1  9.25992 -13.716 -46.9239
LeftArm  -8.45844 13.3868 -26.3639
LeftForeArm  20.8897 -14.88 -4.95375
LeftHand  -0.25398 0.0180481 5.50724
RightShoulder  4.88014 9.39125 31.902
RightArm  -7.99541 23.9159 22.8568
RightForeArm  -1.54822 17.6525 5.85053
RightHand  -1.09036 3.04435 -15.2162
LeftUpLeg  -24.489 22.498 -3.28787
LeftLeg  10.667 8.41964 -1.08956
LeftFoot  -3.21251 0.398322 -5.31954
LeftToes  1.06244e-005 4.65856e-005 -8.18505e-006
58
root  -21.9318 39.1137 -20.2271 167.681 -65.6631 -171.177
RightUpLeg  6.35617 -16.833 -0.393438
RightLeg  23.3115 -1.17001 -0.780365
RightFoot  -20.6111 -0.00389882 1.66677
RightToes  0.00048216 0.542163 -0.142577
Spine  17.5401 -0.643132 16.0779
Spine1  14.6806 3.88621 -6.51285
HEad  8.7526 6.16388 -8.81011
LeftShoulder1  9.22204 -13.5439 -47.2089
LeftArm  -8.99149 15.1339 -25.5707
LeftForeArm  20.5353 -15.0903 -4.78371
LeftHand  -0.25398 0.0180481 5.50724
RightShoulder  4.96727 9.46489 32.3607
RightArm  -5.8704 26.1026 22.5908
RightForeArm  -2.9238 19.1257 5.61864
RightHand  -1.14996 3.25935 -15.6484
LeftUpLeg  -20.2237 5.95772 5.46409
LeftLeg  -3.26027 32.9931 -8.90739
LeftFoot  -3.93453 0.412611 -6.09738
LeftToes  1.06244e-005 4.65856e-005 -8.18505e-006
59
root  -23.3844 38.6589 -20.8175 164.935 -65.0463 -168.294
RightUpLeg  8.61793 -15.3313 0.642642
RightLeg  24.4703 -2.04924 -1.25207
RightFoot  -22.4624 0.101757 2.62854
RightToes  0.00048216 0.542163 -0.142577
Spine  16.9951 -0.680976 17.3946
Spine1  15.08 4.2263 -7.49674
HEad  8.60884 6.53631 -8.23966
LeftShoulder1  9.11332 -13.3782 -47.1074
LeftArm  -9.81865 17.2648 -25.3544
LeftForeArm  19.5087 -15.8476 -4.48487
LeftHand  -0.25398 0.0180481 5.50724
RightShoulder  5.02793 9.55056 32.5742
RightArm  -4.36495 27.649 23.0813
RightForeArm  -3.16476 20.467 5.34262
RightHand  -1.14355 3.25532 -15.5672
LeftUpLeg  -20.5469 6.53005 5.47505
LeftLeg  -8.55273 38.1576 -11.2405
LeftFoot  -6.68709 0.33371 -7.00167
LeftToes  1.06244e-005 4.65856e-005 -8.18505e-006
60
root  -24.8361 38.2526 -21.4639 163.445 -65.6674 -166.749
RightUpLeg  10.9989 -14.5146 1.03053
RightLeg  25.5326 -3.41537 -2.01214
RightFoot  -24.0744 0.230266 3.49484
RightToes  0.00048216 0.542163 -0.142577
Spine  16.8039 -0.81967 16.4713
Spine1  15.697 3.99833 -7.19412
HEad  8.34575 6.84466 -7.51361
LeftShoulder1  8.98412 -13.2708 -46.7289
LeftArm  -10.8147 19.2332 -25.5946
LeftForeArm  18.8713 -16.4098 -4.23438
LeftHand  -0.25398 0.0180481 5.50724
RightShoulder  5.12338 9.67815 32.9243
RightArm  -3.22841 28.4457 23.6577
RightForeArm  -2.88747 22.0344 5.13602
RightHand  -1.07324 2.92612 -15.1862
LeftUpLeg  -21.2138 6.68319 4.9522
LeftLeg  -7.7924 39.8339 -11.5974
LeftFoot  -6.70016 0.208828 -4.4664
LeftToes  1.06244e-005 4.65856e-005 -8.18505e-006
61
root  -26.2354 37.8854 -22.1603 164.476 -66.9081 -167.822
RightUpLeg  12.7177 -13.8084 0.239812
RightLeg  27.6139 -4.20616 -2.61633
RightFoot  -25.2481 0.671284 6.86001
RightToes  0.00048216 0.542163 -0.142577
Spine  17.3969 -0.544336 13.174
Spine1  16.0679 3.61486 -5.88633
HEad  7.76797 6.75333 -6.64372
LeftShoulder1  8.97409 -13.306 -46.5749
LeftArm  -11.3414 20.032 -25.4908
LeftForeArm  19.291 -16.033 -4.18567
LeftHand  -0.25398 0.0180481 5.50724
RightShoulder  5.3276 9.86218 33.91
RightArm  -2.82949 28.4297 23.6484
RightForeArm  -2.40943 24.0173 5.23894
RightHand  -1.02456 2.50623 -15.2475
LeftUpLeg  -23.0097 8.11738 3.11322
LeftLeg  -1.39956 36.7303 -8.62674
LeftFoot  -2.22624 -0.142626 1.7051
LeftToes  1.06244e-005 4.65856e-005 -8.18505e-006
62
root  -27.5811 37.5475 -22.8232 167.615 -67.6651 -171.01
RightUpLeg  12.0501 -12.7725 -1.45765
RightLeg  33.4727 -3.62002 -2.81839
RightFoot  -23.6784 1.17921 12.6459
RightToes  0.00048216 0.542163 -0.142577
Spine  18.9092 0.211217 9.63683
Spine1  15.5846 3.54842 -4.89836
HEad  6.65519 6.13412 -5.71378
LeftShoulder1  9.13671 -13.5925 -46.6263
LeftArm  -11.4354 19.0918 -24.7727
LeftForeArm  20.1987 -14.5311 -4.3617
LeftHand  -0.25398 0.0180481 5.50724
RightShoulder  5.59284 10.1444 35.0168
RightArm  -3.41977 27.7627 23.7163
RightForeArm  -1.72751 25.6773 5.59651
RightHand  -1.09613 2.55372 -16.1757
LeftUpLeg  -27.146 15.8147 -2.25696
LeftLeg  8.52575 26.1765 -2.50097
LeftFoot  3.80702 -1.10878 8.14694
LeftToes  1.06244e-005 4.65856e-005 -8.18505e-006
63
root  -28.7921 37.3785 -23.3345 171.307 -68.1029 -174.853
RightUpLeg  7.7775 -11.6375 -3.4157
RightLeg  44.1533 -3.06895 -3.54709
RightFoot  -15.7788 0.543047 16.0422
RightToes  0.00048216 0.542163 -0.142577
Spine  21.7593 0.560437 7.39523
Spine1  14.5074 3.66738 -5.26777
HEad  4.9588 5.39578 -5.18468
LeftShoulder1  9.36936 -14.1351 -46.3371
LeftArm  -11.7604 16.8935 -24.1033
LeftForeArm  20.7603 -12.8084 -4.57126
LeftHand  -0.25398 0.0180481 5.50724
RightShoulder  5.77319 10.5215 35.1992
RightArm  -3.70697 27.2657 25.0836
RightForeArm  -1.16829 25.7505 5.57139
RightHand  -1.22134 3.03922 -17.0146
LeftUpLeg  -31.4282 27.0384 -10.7423
LeftLeg  14.0707 12.2125 1.79351
LeftFoot  7.96718 -2.21789 12.7858
LeftToes  1.06244e-005 4.65856e-005 -8.18505e-006
64
root  -29.7781 37.286 -23.6648 174.431 -68.8291 -178.405
RightUpLeg  0.587501 -10.5681 -5.06276
RightLeg  57.0426 -2.72814 -4.97253
RightFoot  -3.08174 -0.953342 13.4636
RightToes  0.00048216 0.542163 -0.142577
Spine  25.9115 0.11032 6.06086
Spine1  13.6017 3.41312 -6.37665
HEad  2.83682 5.05076 -5.63853
LeftShoulder1  9.58107 -14.8106 -45.6124
LeftArm  -12.1947 14.2437 -24.0399
LeftForeArm  21.0839 -12.3452 -4.59052
LeftHand  -0.25398 0.0180481 5.50724
RightShoulder  5.80926 10.9162 34.3325
RightArm  -2.9456 28.1666 27.4268
RightForeArm  -0.216286 23.6431 5.14288
RightHand  -1.15022 2.96825 -16.1364
LeftUpLeg  -33.0461 30.1475 -14.5091
LeftLeg  17.6662 8.15723 3.44595
LeftFoot  7.71909 -2.64262 15.3913
LeftToes  1.06244e-005 4.65856e-005 -8.18505e-006
65
root  -30.5205 37.1934 -23.9097 177.817 -69.9349 177.954
RightUpLeg  -7.68141 -9.40058 -6.18279
RightLeg  67.5442 -1.72453 -5.25874
RightFoot  6.07373 -1.24681 8.24614
RightToes  0.00048216 0.542163 -0.142577
Spine  30.3579 -0.485583 4.38656
Spine1  13.5204 2.7418 -6.86979
HEad  0.333526 4.94209 -6.97298
LeftShoulder1  9.7623 -15.4716 -44.8236
LeftArm  -11.9895 11.1391 -24.5496
LeftForeArm  21.8162 -13.7296 -4.48993
LeftHand  -0.25398 0.0180481 5.50724
RightShoulder  5.78634 11.2779 33.198
RightArm  -2.60211 30.9994 29.1229
RightForeArm  2.21578 19.8819 5.20612
RightHand  -0.826424 1.82844 -13.4058
LeftUpLeg  -32.8101 29.2419 -15.3781
LeftLeg  20.5606 8.37931 3.78718
LeftFoot  5.29049 -2.4872 16.6564
LeftToes  1.06244e-005 4.65856e-005 -8.18505e-006
66
root  -31.1946 37.3183 -24.1833 -179.295 -70.8734 175.675
RightUpLeg  -15.8942 -8.20779 -6.37792
RightLeg  73.1846 -0.765013 -3.93123
RightFoot  7.58027 -0.761464 4.80327
RightToes  0.00048216 0.542163 -0.142577
Spine  34.0116 -0.789566 3.20617
Spine1  14.0031 2.19366 -6.55483
HEad  -2.64453 4.39026 -8.18437
LeftShoulder1  9.81623 -16.0043 -43.7896
LeftArm  -10.9316 6.89348 -25.6302
LeftForeArm  22.3626 -15.9829 -4.35045
LeftHand  -0.25398 0.0180481 5.50724
RightShoulder  5.76371 11.6321 32.1318
RightArm  -5.66721 34.9826 29.4843
RightForeArm  6.85567 15.3119 6.35261
RightHand  -0.546102 0.543158 -10.8115
LeftUpLeg  -32.7301 28.9269 -16.1622
LeftLeg  21.5296 7.68067 3.65878
LeftFoot  3.92398 -2.287 16.7549
LeftToes  1.06244e-005 4.65856e-005 -8.18505e-006
67
root  -31.8415 37.6651 -24.4811 -178.051 -71.4283 175.874
RightUpLeg  -23.4865 -7.13563 -5.78957
RightLeg  73.4739 -0.430639 -2.76179
RightFoot  4.84486 -0.620506 4.65463
RightToes  0.00048216 0.542163 -0.142577
Spine  37.0199 -1.04402 3.4123
Spine1  14.6059 2.16679 -6.57908
HEad  -5.9446 3.16249 -8.35566
LeftShoulder1  9.64842 -16.4018 -42.0772
LeftArm  -10.0723 1.26602 -27.1196
LeftForeArm  21.5475 -17.549 -4.26153
LeftHand  -0.25398 0.0180481 5.50724
RightShoulder  5.69961 11.9873 30.833
RightArm  -10.501 38.8296 29.3849
RightForeArm  10.489 10.8105 7.12091
RightHand  -0.480452 0.142695 -10.1232
LeftUpLeg  -32.8048 29.0988 -16.2897
LeftLeg  20.926 6.91166 3.24103
LeftFoot  3.96876 -2.18421 15.9611
LeftToes  1.06244e-005 4.65856e-005 -8.18505e-006
